# Blender v2.74 (sub 0) OBJ File: ''
# www.blender.org
mtllib blockg.mtl
o Box
v 39.833408 6.180356 39.833408
v 39.833408 6.180356 -39.833408
v 15.000000 -2.500000 15.000000
v 15.000000 -2.500000 -15.000000
v -39.833408 6.180356 -39.833408
v -39.833408 6.180356 39.833408
v -15.000000 -2.500000 -15.000000
v -15.000000 -2.500000 15.000000
v -7.827831 0.058587 7.827831
v -7.827831 0.058587 -7.827831
v 7.827831 0.058587 7.827831
v 7.827831 0.058587 -7.827831
vt -19.666704 -19.666704
vt -7.250000 -7.250000
vt -7.250000 7.750000
vt -19.666704 20.166704
vt 20.166704 -19.666704
vt 7.750000 -7.250000
vt 20.166704 20.166704
vt 7.750000 7.750000
vt -3.663916 -3.663916
vt -3.663916 4.163916
vt 4.163916 -3.663916
vt 4.163916 4.163916
vn 1.000000 -0.000000 -0.000000
vn -1.000000 -0.000000 0.000000
vn 0.000000 -0.000000 1.000000
vn -0.000000 -0.000000 -1.000000
vn -0.000000 1.000000 0.000000
usemtl w2Material
s 1
f 1/1/1 3/2/1 4/3/1 2/4/1
f 5/4/2 7/3/2 8/2/2 6/1/2
f 6/5/3 8/6/3 3/2/3 1/1/3
f 2/7/4 4/8/4 7/3/4 5/4/4
f 5/4/5 6/1/5 9/9/5 10/10/5
f 6/5/5 1/1/5 11/9/5 9/11/5
f 1/1/5 2/4/5 12/10/5 11/9/5
f 2/7/5 5/4/5 10/10/5 12/12/5
o Box8
v 42.334297 10.698500 -39.741550
v 32.334297 10.698500 -39.741550
v 42.334297 0.698500 -39.741550
v 32.334297 0.698500 -39.741550
v 32.334305 10.698500 39.741550
v 42.334305 10.698500 39.741550
v 32.334305 0.698500 39.741550
v 42.334305 0.698500 39.741550
vt 0.125000 0.695913
vt 0.125000 0.304087
vt 0.375000 0.304087
vt 0.375000 0.695913
vt 0.625000 0.695913
vt 0.625000 0.304087
vt 0.875000 0.304087
vt 0.875000 0.695913
vt 1.625000 0.695913
vt 1.125000 0.695913
vt 1.375000 0.695913
vt 1.125000 0.304087
vn 0.000000 0.000000 -1.000000
vn 0.000000 0.000000 1.000000
vn 0.000000 1.000000 0.000000
vn 0.000000 -1.000000 0.000000
vn 1.000000 0.000000 -0.000000
vn -1.000000 0.000000 0.000000
usemtl b1Material
s 1
f 13/13/6 15/14/6 16/15/6 14/16/6
f 17/17/7 19/18/7 20/19/7 18/20/7
f 17/21/8 18/20/8 13/22/8 14/23/8
f 20/19/9 19/18/9 16/15/9 15/24/9
f 18/20/10 20/19/10 15/24/10 13/22/10
f 14/16/11 16/15/11 19/18/11 17/17/11
o Box5
v 39.741550 10.698500 42.334301
v 39.741550 10.698500 32.334301
v 39.741550 0.698500 42.334301
v 39.741550 0.698500 32.334301
v -39.741550 10.698500 32.334301
v -39.741550 10.698500 42.334301
v -39.741550 0.698500 32.334301
v -39.741550 0.698500 42.334301
vt 0.125000 0.695913
vt 0.125000 0.304087
vt 0.375000 0.304087
vt 0.375000 0.695913
vt 0.625000 0.695913
vt 0.625000 0.304087
vt 0.875000 0.304087
vt 0.875000 0.695913
vt 1.625000 0.695913
vt 1.125000 0.695913
vt 1.375000 0.695913
vt 1.125000 0.304087
vn 1.000000 0.000000 0.000000
vn -1.000000 0.000000 0.000000
vn 0.000000 1.000000 0.000000
vn 0.000000 -1.000000 0.000000
vn 0.000000 0.000000 1.000000
vn 0.000000 0.000000 -1.000000
usemtl b1Material
s 1
f 21/25/12 23/26/12 24/27/12 22/28/12
f 25/29/13 27/30/13 28/31/13 26/32/13
f 25/33/14 26/32/14 21/34/14 22/35/14
f 28/31/15 27/30/15 24/27/15 23/36/15
f 26/32/16 28/31/16 23/36/16 21/34/16
f 22/28/17 24/27/17 27/30/17 25/29/17
o Box6
v 39.741550 10.698500 -32.334301
v 39.741550 10.698500 -42.334301
v 39.741550 0.698500 -32.334301
v 39.741550 0.698500 -42.334301
v -39.741550 10.698500 -42.334301
v -39.741550 10.698500 -32.334301
v -39.741550 0.698500 -42.334301
v -39.741550 0.698500 -32.334301
vt 0.125000 0.695913
vt 0.125000 0.304087
vt 0.375000 0.304087
vt 0.375000 0.695913
vt 0.625000 0.695913
vt 0.625000 0.304087
vt 0.875000 0.304087
vt 0.875000 0.695913
vt 1.625000 0.695913
vt 1.125000 0.695913
vt 1.375000 0.695913
vt 1.125000 0.304087
vn 1.000000 0.000000 0.000000
vn -1.000000 0.000000 0.000000
vn 0.000000 1.000000 0.000000
vn 0.000000 -1.000000 0.000000
vn 0.000000 0.000000 1.000000
vn 0.000000 0.000000 -1.000000
usemtl b1Material
s 1
f 29/37/18 31/38/18 32/39/18 30/40/18
f 33/41/19 35/42/19 36/43/19 34/44/19
f 33/45/20 34/44/20 29/46/20 30/47/20
f 36/43/21 35/42/21 32/39/21 31/48/21
f 34/44/22 36/43/22 31/48/22 29/46/22
f 30/40/23 32/39/23 35/42/23 33/41/23
o Box7
v -32.334305 10.698500 -39.741550
v -42.334305 10.698500 -39.741550
v -32.334305 0.698500 -39.741550
v -42.334305 0.698500 -39.741550
v -42.334297 10.698500 39.741550
v -32.334297 10.698500 39.741550
v -42.334297 0.698500 39.741550
v -32.334297 0.698500 39.741550
vt 0.125000 0.695913
vt 0.125000 0.304087
vt 0.375000 0.304087
vt 0.375000 0.695913
vt 0.625000 0.695913
vt 0.625000 0.304087
vt 0.875000 0.304087
vt 0.875000 0.695913
vt 1.625000 0.695913
vt 1.125000 0.695913
vt 1.375000 0.695913
vt 1.125000 0.304087
vn 0.000000 0.000000 -1.000000
vn 0.000000 0.000000 1.000000
vn 0.000000 1.000000 0.000000
vn 0.000000 -1.000000 0.000000
vn 1.000000 0.000000 -0.000000
vn -1.000000 0.000000 0.000000
usemtl b1Material
s 1
f 37/49/24 39/50/24 40/51/24 38/52/24
f 41/53/25 43/54/25 44/55/25 42/56/25
f 41/57/26 42/56/26 37/58/26 38/59/26
f 44/55/27 43/54/27 40/51/27 39/60/27
f 42/56/28 44/55/28 39/60/28 37/58/28
f 38/52/29 40/51/29 43/54/29 41/53/29
o Box12
v 31.521105 10.668600 33.632229
v 33.642426 10.668600 31.510906
v 31.521105 -9.331400 33.632229
v 33.642426 -9.331400 31.510906
v 8.991693 -0.546771 6.860173
v 6.870373 -0.546771 8.981494
v 8.991693 -10.009810 6.860173
v 6.870373 -10.009810 8.981494
vt 0.000000 25.000000
vt 0.000000 0.000000
vt 25.000000 0.000000
vt 25.000000 25.000000
vn 0.707100 0.000000 0.707100
vn -0.707100 0.000000 -0.707100
vn 0.140400 0.980100 0.140400
vn 0.140400 0.980100 0.140300
vn 0.140300 0.980100 0.140400
vn -0.010200 -0.999900 -0.010200
vn -0.707100 0.000000 0.707100
vn 0.707100 0.000000 -0.707100
usemtl w1Material
s 1
f 45/61/30 47/62/30 48/63/30 46/64/30
f 49/61/31 51/62/31 52/63/31 50/64/31
f 49/61/32 50/62/32 45/63/33 46/64/34
f 52/63/35 51/64/35 48/61/35 47/62/35
f 50/61/36 52/62/36 47/63/36 45/64/36
f 46/61/37 48/62/37 51/63/37 49/64/37
o Box10
v -31.521103 10.668600 -33.632225
v -33.642422 10.668600 -31.510906
v -31.521103 -9.331400 -33.632225
v -33.642422 -9.331400 -31.510906
v -8.991696 -0.546771 -6.860175
v -6.870376 -0.546771 -8.981494
v -8.991696 -10.009810 -6.860175
v -6.870376 -10.009810 -8.981494
vt 0.000000 25.000000
vt 0.000000 0.000000
vt 25.000000 0.000000
vt 25.000000 25.000000
vn -0.707100 0.000000 -0.707100
vn 0.707100 0.000000 0.707100
vn -0.140400 0.980100 -0.140400
vn -0.140400 0.980100 -0.140300
vn -0.140300 0.980100 -0.140400
vn 0.010200 -0.999900 0.010200
vn 0.707100 0.000000 -0.707100
vn -0.707100 0.000000 0.707100
usemtl w1Material
s 1
f 53/65/38 55/66/38 56/67/38 54/68/38
f 57/65/39 59/66/39 60/67/39 58/68/39
f 57/65/40 58/66/40 53/67/41 54/68/42
f 60/67/43 59/68/43 56/65/43 55/66/43
f 58/65/44 60/66/44 55/67/44 53/68/44
f 54/65/45 56/66/45 59/67/45 57/68/45
o Box3
v -39.418903 17.875599 -39.741550
v -40.418903 17.875599 -39.741550
v -39.418903 -2.124400 -39.741550
v -40.418903 -2.124400 -39.741550
v -40.418896 17.875599 39.741550
v -39.418896 17.875599 39.741550
v -40.418896 -2.124400 39.741550
v -39.418896 -2.124400 39.741550
vt 0.000000 25.000000
vt 0.000000 0.000000
vt 25.000000 0.000000
vt 25.000000 25.000000
vn 0.000000 0.000000 -1.000000
vn 0.000000 0.000000 1.000000
vn 0.000000 1.000000 0.000000
vn 0.000000 -1.000000 0.000000
vn 1.000000 0.000000 -0.000000
vn -1.000000 0.000000 0.000000
usemtl w1Material
s 1
f 61/69/46 63/70/46 64/71/46 62/72/46
f 65/69/47 67/70/47 68/71/47 66/72/47
f 65/69/48 66/70/48 61/71/48 62/72/48
f 68/71/49 67/72/49 64/69/49 63/70/49
f 66/69/50 68/70/50 63/71/50 61/72/50
f 62/69/51 64/70/51 67/71/51 65/72/51
o Box9
v 33.642426 10.668600 -31.510906
v 31.521105 10.668600 -33.632229
v 33.642426 -9.331400 -31.510906
v 31.521105 -9.331400 -33.632229
v 6.870373 -0.546771 -8.981494
v 8.991693 -0.546771 -6.860173
v 6.870373 -10.009810 -8.981494
v 8.991693 -10.009810 -6.860173
vt 0.000000 25.000000
vt 0.000000 0.000000
vt 25.000000 0.000000
vt 25.000000 25.000000
vn 0.707100 0.000000 -0.707100
vn -0.707100 0.000000 0.707100
vn 0.140400 0.980100 -0.140400
vn 0.140300 0.980100 -0.140400
vn 0.140400 0.980100 -0.140300
vn -0.010200 -0.999900 0.010200
vn 0.707100 0.000000 0.707100
vn -0.707100 0.000000 -0.707100
usemtl w1Material
s 1
f 69/73/52 71/74/52 72/75/52 70/76/52
f 73/73/53 75/74/53 76/75/53 74/76/53
f 73/73/54 74/74/54 69/75/55 70/76/56
f 76/75/57 75/76/57 72/73/57 71/74/57
f 74/73/58 76/74/58 71/75/58 69/76/58
f 70/73/59 72/74/59 75/75/59 73/76/59
o Box4
v 40.418896 17.875599 -39.741550
v 39.418896 17.875599 -39.741550
v 40.418896 -2.124400 -39.741550
v 39.418896 -2.124400 -39.741550
v 39.418903 17.875599 39.741550
v 40.418903 17.875599 39.741550
v 39.418903 -2.124400 39.741550
v 40.418903 -2.124400 39.741550
vt 0.000000 25.000000
vt 0.000000 0.000000
vt 25.000000 0.000000
vt 25.000000 25.000000
vn 0.000000 0.000000 -1.000000
vn 0.000000 0.000000 1.000000
vn 0.000000 1.000000 0.000000
vn 0.000000 -1.000000 0.000000
vn 1.000000 0.000000 -0.000000
vn -1.000000 0.000000 0.000000
usemtl b0b0b0
s 1
f 77/77/60 79/78/60 80/79/60 78/80/60
f 81/77/61 83/78/61 84/79/61 82/80/61
f 81/77/62 82/78/62 77/79/62 78/80/62
f 84/79/63 83/80/63 80/77/63 79/78/63
f 82/77/64 84/78/64 79/79/64 77/80/64
f 78/77/65 80/78/65 83/79/65 81/80/65
o Torus1
v 5.320979 19.000000 -5.320980
v 4.702260 18.500000 -4.702261
v 4.083542 19.000000 -4.083542
v 4.702260 19.500000 -4.702261
v 5.320980 19.000000 5.320979
v 4.702261 18.500000 4.702260
v 4.083542 19.000000 4.083542
v 4.702261 19.500000 4.702260
v -5.320979 19.000000 5.320980
v -4.702260 18.500000 4.702261
v -4.083542 19.000000 4.083542
v -4.702260 19.500000 4.702261
v -5.320980 19.000000 -5.320979
v -4.702261 18.500000 -4.702260
v -4.083542 19.000000 -4.083542
v -4.702261 19.500000 -4.702260
vt 1.000000 1.000000
vt 0.750000 1.000000
vt 0.750000 0.750000
vt 1.000000 0.750000
vt 0.750000 0.500000
vt 1.000000 0.500000
vt 0.750000 0.250000
vt 1.000000 0.250000
vt 0.750000 0.000000
vt 1.000000 0.000000
vt 0.500000 1.000000
vt 0.500000 0.750000
vt 0.500000 0.500000
vt 0.500000 0.250000
vt 0.500000 0.000000
vt 0.250000 1.000000
vt 0.250000 0.750000
vt 0.250000 0.500000
vt 0.250000 0.250000
vt 0.250000 0.000000
vt 0.000000 1.000000
vt 0.000000 0.750000
vt 0.000000 0.500000
vt 0.000000 0.250000
vt 0.000000 0.000000
vn 0.707100 -0.000000 -0.707100
vn 0.707100 -0.000000 0.707100
vn -0.045300 -0.998200 -0.040200
vn -0.042800 -0.998200 0.042800
vn -0.707100 -0.000000 -0.707100
vn -0.707100 -0.000000 0.707100
vn -0.045300 0.998200 -0.040200
vn -0.042800 0.998200 0.042800
vn 0.040200 -0.998200 -0.045300
vn 0.040200 0.998200 -0.045300
vn 0.045300 -0.998200 0.040200
vn 0.045300 0.998200 0.040200
usemtl b1Material
s 1
f 85/81/66 89/82/67 90/83/68 86/84/69
f 86/84/69 90/83/68 91/85/70 87/86/71
f 87/86/71 91/85/70 92/87/72 88/88/73
f 88/88/73 92/87/72 89/89/67 85/90/66
f 89/82/67 93/91/71 94/92/74 90/83/68
f 90/83/68 94/92/74 95/93/66 91/85/70
f 91/85/70 95/93/66 96/94/75 92/87/72
f 92/87/72 96/94/75 93/95/71 89/89/67
f 93/91/71 97/96/70 98/97/76 94/92/74
f 94/92/74 98/97/76 99/98/67 95/93/66
f 95/93/66 99/98/67 100/99/77 96/94/75
f 96/94/75 100/99/77 97/100/70 93/95/71
f 97/96/70 85/101/66 86/102/69 98/97/76
f 98/97/76 86/102/69 87/103/71 99/98/67
f 99/98/67 87/103/71 88/104/73 100/99/77
f 100/99/77 88/104/73 85/105/66 97/100/70
o Torus2
v 6.081119 22.000000 -6.081119
v 5.374012 21.500000 -5.374012
v 4.666905 22.000000 -4.666905
v 5.374012 22.500000 -5.374012
v 6.081119 22.000000 6.081119
v 5.374012 21.500000 5.374012
v 4.666905 22.000000 4.666905
v 5.374012 22.500000 5.374012
v -6.081119 22.000000 6.081119
v -5.374012 21.500000 5.374012
v -4.666905 22.000000 4.666905
v -5.374012 22.500000 5.374012
v -6.081119 22.000000 -6.081119
v -5.374012 21.500000 -5.374012
v -4.666905 22.000000 -4.666905
v -5.374012 22.500000 -5.374012
vt 1.000000 1.000000
vt 0.750000 1.000000
vt 0.750000 0.750000
vt 1.000000 0.750000
vt 0.750000 0.500000
vt 1.000000 0.500000
vt 0.750000 0.250000
vt 1.000000 0.250000
vt 0.750000 0.000000
vt 1.000000 0.000000
vt 0.500000 1.000000
vt 0.500000 0.750000
vt 0.500000 0.500000
vt 0.500000 0.250000
vt 0.500000 0.000000
vt 0.250000 1.000000
vt 0.250000 0.750000
vt 0.250000 0.500000
vt 0.250000 0.250000
vt 0.250000 0.000000
vt 0.000000 1.000000
vt 0.000000 0.750000
vt 0.000000 0.500000
vt 0.000000 0.250000
vt 0.000000 0.000000
vn 0.707100 0.000000 -0.707100
vn 0.707100 0.000000 0.707100
vn -0.057000 -0.997100 -0.051000
vn -0.054000 -0.997100 0.054000
vn -0.707100 -0.000000 -0.707100
vn -0.707100 0.000000 0.707100
vn -0.057000 0.997100 -0.051000
vn -0.054000 0.997100 0.054000
vn 0.051000 -0.997100 -0.057000
vn 0.051000 0.997100 -0.057000
vn 0.057000 -0.997100 0.051000
vn 0.057000 0.997100 0.051000
usemtl b1Material
s 1
f 101/106/78 105/107/79 106/108/80 102/109/81
f 102/109/81 106/108/80 107/110/82 103/111/83
f 103/111/83 107/110/82 108/112/84 104/113/85
f 104/113/85 108/112/84 105/114/79 101/115/78
f 105/107/79 109/116/83 110/117/86 106/108/80
f 106/108/80 110/117/86 111/118/78 107/110/82
f 107/110/82 111/118/78 112/119/87 108/112/84
f 108/112/84 112/119/87 109/120/83 105/114/79
f 109/116/83 113/121/82 114/122/88 110/117/86
f 110/117/86 114/122/88 115/123/79 111/118/78
f 111/118/78 115/123/79 116/124/89 112/119/87
f 112/119/87 116/124/89 113/125/82 109/120/83
f 113/121/82 101/126/78 102/127/81 114/122/88
f 114/122/88 102/127/81 103/128/83 115/123/79
f 115/123/79 103/128/83 104/129/85 116/124/89
f 116/124/89 104/129/85 101/130/78 113/125/82
o Box2
v 39.741550 17.875599 -39.418900
v 39.741550 17.875599 -40.418900
v 39.741550 -2.124400 -39.418900
v 39.741550 -2.124400 -40.418900
v -39.741550 17.875599 -40.418900
v -39.741550 17.875599 -39.418900
v -39.741550 -2.124400 -40.418900
v -39.741550 -2.124400 -39.418900
vt 0.000000 25.000000
vt 0.000000 0.000000
vt 25.000000 0.000000
vt 25.000000 25.000000
vn 1.000000 0.000000 0.000000
vn -1.000000 0.000000 0.000000
vn 0.000000 1.000000 0.000000
vn 0.000000 -1.000000 0.000000
vn 0.000000 0.000000 1.000000
vn 0.000000 0.000000 -1.000000
usemtl w1Material
s 1
f 117/131/90 119/132/90 120/133/90 118/134/90
f 121/131/91 123/132/91 124/133/91 122/134/91
f 121/131/92 122/132/92 117/133/92 118/134/92
f 124/133/93 123/134/93 120/131/93 119/132/93
f 122/131/94 124/132/94 119/133/94 117/134/94
f 118/131/95 120/132/95 123/133/95 121/134/95
o Box1
v 39.741550 17.875599 40.418900
v 39.741550 17.875599 39.418900
v 39.741550 -2.124400 40.418900
v 39.741550 -2.124400 39.418900
v -39.741550 17.875599 39.418900
v -39.741550 17.875599 40.418900
v -39.741550 -2.124400 39.418900
v -39.741550 -2.124400 40.418900
vt 0.000000 25.000000
vt 0.000000 0.000000
vt 25.000000 0.000000
vt 25.000000 25.000000
vn 1.000000 0.000000 0.000000
vn -1.000000 0.000000 0.000000
vn 0.000000 1.000000 0.000000
vn 0.000000 -1.000000 0.000000
vn 0.000000 0.000000 1.000000
vn 0.000000 0.000000 -1.000000
usemtl b0b0b0
s 1
f 125/135/96 127/136/96 128/137/96 126/138/96
f 129/135/97 131/136/97 132/137/97 130/138/97
f 129/135/98 130/136/98 125/137/98 126/138/98
f 132/137/99 131/138/99 128/135/99 127/136/99
f 130/135/100 132/136/100 127/137/100 125/138/100
f 126/135/101 128/136/101 131/137/101 129/138/101
o Torus
v 4.560839 16.000000 -4.560839
v 4.030509 15.500000 -4.030509
v 3.500179 16.000000 -3.500179
v 4.030509 16.500000 -4.030509
v 4.560839 16.000000 4.560839
v 4.030509 15.500000 4.030509
v 3.500179 16.000000 3.500179
v 4.030509 16.500000 4.030509
v -4.560839 16.000000 4.560839
v -4.030509 15.500000 4.030509
v -3.500179 16.000000 3.500179
v -4.030509 16.500000 4.030509
v -4.560839 16.000000 -4.560839
v -4.030509 15.500000 -4.030509
v -3.500179 16.000000 -3.500179
v -4.030509 16.500000 -4.030509
vt 1.000000 1.000000
vt 0.750000 1.000000
vt 0.750000 0.750000
vt 1.000000 0.750000
vt 0.750000 0.500000
vt 1.000000 0.500000
vt 0.750000 0.250000
vt 1.000000 0.250000
vt 0.750000 0.000000
vt 1.000000 0.000000
vt 0.500000 1.000000
vt 0.500000 0.750000
vt 0.500000 0.500000
vt 0.500000 0.250000
vt 0.500000 0.000000
vt 0.250000 1.000000
vt 0.250000 0.750000
vt 0.250000 0.500000
vt 0.250000 0.250000
vt 0.250000 0.000000
vt 0.000000 1.000000
vt 0.000000 0.750000
vt 0.000000 0.500000
vt 0.000000 0.250000
vt 0.000000 0.000000
vn 0.707100 -0.000000 -0.707100
vn 0.707100 -0.000000 0.707100
vn -0.031800 -0.999100 -0.028000
vn -0.029900 -0.999100 0.029900
vn -0.707100 -0.000000 -0.707100
vn -0.707100 -0.000000 0.707100
vn -0.031800 0.999100 -0.028000
vn -0.029900 0.999100 0.029900
vn 0.028000 -0.999100 -0.031800
vn 0.028000 0.999100 -0.031800
vn 0.031800 -0.999100 0.028000
vn 0.031800 0.999100 0.028000
usemtl b1Material
s 1
f 133/139/102 137/140/103 138/141/104 134/142/105
f 134/142/105 138/141/104 139/143/106 135/144/107
f 135/144/107 139/143/106 140/145/108 136/146/109
f 136/146/109 140/145/108 137/147/103 133/148/102
f 137/140/103 141/149/107 142/150/110 138/141/104
f 138/141/104 142/150/110 143/151/102 139/143/106
f 139/143/106 143/151/102 144/152/111 140/145/108
f 140/145/108 144/152/111 141/153/107 137/147/103
f 141/149/107 145/154/106 146/155/112 142/150/110
f 142/150/110 146/155/112 147/156/103 143/151/102
f 143/151/102 147/156/103 148/157/113 144/152/111
f 144/152/111 148/157/113 145/158/106 141/153/107
f 145/154/106 133/159/102 134/160/105 146/155/112
f 146/155/112 134/160/105 135/161/107 147/156/103
f 147/156/103 135/161/107 136/162/109 148/157/113
f 148/157/113 136/162/109 133/163/102 145/158/106
o Merged_Meshes
v 33.780323 7.800301 -27.484161
v 33.780323 7.800301 -35.984161
v 33.780323 -0.699701 -27.484161
v 33.780323 -0.699701 -35.984161
v -33.780323 7.800301 -35.984161
v -33.780323 7.800301 -27.484161
v -33.780323 -0.699701 -35.984161
v -33.780323 -0.699701 -27.484161
v 35.984161 7.800301 -33.780323
v 27.484161 7.800301 -33.780323
v 35.984161 -0.699701 -33.780323
v 27.484161 -0.699701 -33.780323
v 27.484161 7.800301 33.780323
v 35.984161 7.800301 33.780323
v 27.484161 -0.699701 33.780323
v 35.984161 -0.699701 33.780323
v 33.780323 7.800301 35.984161
v 33.780323 7.800301 27.484161
v 33.780323 -0.699701 35.984161
v 33.780323 -0.699701 27.484161
v -33.780323 7.800301 27.484161
v -33.780323 7.800301 35.984161
v -33.780323 -0.699701 27.484161
v -33.780323 -0.699701 35.984161
v -27.484161 7.800301 -33.780323
v -35.984161 7.800301 -33.780323
v -27.484161 -0.699701 -33.780323
v -35.984161 -0.699701 -33.780323
v -35.984161 7.800301 33.780323
v -27.484161 7.800301 33.780323
v -35.984161 -0.699701 33.780323
v -27.484161 -0.699701 33.780323
vt 40.241550 32.834301
vt 40.241550 42.834301
vt -39.241550 42.834301
vt -39.241550 32.834301
vt 42.834301 40.241550
vt 32.834301 40.241550
vt 32.834301 -39.241550
vt 42.834301 -39.241550
vt 40.241550 -41.834301
vt 40.241550 -31.834301
vt -39.241550 -31.834301
vt -39.241550 -41.834301
vt -31.834301 40.241550
vt -41.834301 40.241550
vt -41.834301 -39.241550
vt -31.834301 -39.241550
vn 1.000000 0.000000 0.000000
vn -1.000000 0.000000 0.000000
vn 0.000000 1.000000 0.000000
vn 0.000000 -1.000000 0.000000
vn 0.000000 0.000000 1.000000
vn 0.000000 0.000000 -1.000000
usemtl w1Material
s 1
f 149/164/114 151/164/114 152/165/114 150/165/114
f 153/166/115 155/166/115 156/167/115 154/167/115
f 153/166/116 154/167/116 149/164/116 150/165/116
f 156/167/117 155/166/117 152/165/117 151/164/117
f 154/167/118 156/167/118 151/164/118 149/164/118
f 150/165/119 152/165/119 155/166/119 153/166/119
f 157/168/119 159/168/119 160/169/119 158/169/119
f 161/170/118 163/170/118 164/171/118 162/171/118
f 161/170/116 162/171/116 157/168/116 158/169/116
f 164/171/117 163/170/117 160/169/117 159/168/117
f 162/171/114 164/171/114 159/168/114 157/168/114
f 158/169/115 160/169/115 163/170/115 161/170/115
f 165/172/114 167/172/114 168/173/114 166/173/114
f 169/174/115 171/174/115 172/175/115 170/175/115
f 169/174/116 170/175/116 165/172/116 166/173/116
f 172/175/117 171/174/117 168/173/117 167/172/117
f 170/175/118 172/175/118 167/172/118 165/172/118
f 166/173/119 168/173/119 171/174/119 169/174/119
f 173/176/119 175/176/119 176/177/119 174/177/119
f 177/178/118 179/178/118 180/179/118 178/179/118
f 177/178/116 178/179/116 173/176/116 174/177/116
f 180/179/117 179/178/117 176/177/117 175/176/117
f 178/179/114 180/179/114 175/176/114 173/176/114
f 174/177/115 176/177/115 179/178/115 177/178/115
o Box11
v -33.642422 10.668600 31.510906
v -31.521103 10.668600 33.632225
v -33.642422 -9.331400 31.510906
v -31.521103 -9.331400 33.632225
v -6.870376 -0.546771 8.981494
v -8.991696 -0.546771 6.860175
v -6.870376 -10.009810 8.981494
v -8.991696 -10.009810 6.860175
vt 0.000000 25.000000
vt 0.000000 0.000000
vt 25.000000 0.000000
vt 25.000000 25.000000
vn -0.707100 0.000000 0.707100
vn 0.707100 0.000000 -0.707100
vn -0.140400 0.980100 0.140400
vn -0.140300 0.980100 0.140400
vn -0.140400 0.980100 0.140300
vn 0.010200 -0.999900 -0.010200
vn -0.707100 0.000000 -0.707100
vn 0.707100 0.000000 0.707100
usemtl w1Material
s 1
f 181/180/120 183/181/120 184/182/120 182/183/120
f 185/180/121 187/181/121 188/182/121 186/183/121
f 185/180/122 186/181/122 181/182/123 182/183/124
f 188/182/125 187/183/125 184/180/125 183/181/125
f 186/180/126 188/181/126 183/182/126 181/183/126
f 182/180/127 184/181/127 187/182/127 185/183/127
o Merged_Meshes1
v 27.819084 5.530100 -22.634010
v 27.819084 5.530100 -29.634010
v 27.819084 -1.469900 -22.634010
v 27.819084 -1.469900 -29.634010
v -27.819084 5.530100 -29.634010
v -27.819084 5.530100 -22.634010
v -27.819084 -1.469900 -29.634010
v -27.819084 -1.469900 -22.634010
v 29.634010 5.530100 -27.819084
v 22.634010 5.530100 -27.819084
v 29.634010 -1.469900 -27.819084
v 22.634010 -1.469900 -27.819084
v 22.634010 5.530100 27.819084
v 29.634010 5.530100 27.819084
v 22.634010 -1.469900 27.819084
v 29.634010 -1.469900 27.819084
v 27.819084 5.530100 29.634010
v 27.819084 5.530100 22.634010
v 27.819084 -1.469900 29.634010
v 27.819084 -1.469900 22.634010
v -27.819084 5.530100 22.634010
v -27.819084 5.530100 29.634010
v -27.819084 -1.469900 22.634010
v -27.819084 -1.469900 29.634010
v -22.634010 5.530100 -27.819084
v -29.634010 5.530100 -27.819084
v -22.634010 -1.469900 -27.819084
v -29.634010 -1.469900 -27.819084
v -29.634010 5.530100 27.819084
v -22.634010 5.530100 27.819084
v -29.634010 -1.469900 27.819084
v -22.634010 -1.469900 27.819084
vt 0.125000 0.695913
vt 0.125000 0.304087
vt 0.375000 0.304087
vt 0.375000 0.695913
vt 0.625000 0.695913
vt 0.625000 0.304087
vt 0.875000 0.304087
vt 0.875000 0.695913
vt 1.625000 0.695913
vt 1.125000 0.695913
vt 1.375000 0.695913
vt 1.125000 0.304087
vn 1.000000 0.000000 0.000000
vn -1.000000 0.000000 0.000000
vn 0.000000 1.000000 0.000000
vn 0.000000 -1.000000 0.000000
vn 0.000000 0.000000 1.000000
vn 0.000000 0.000000 -1.000000
usemtl b1Material
s 1
f 189/184/128 191/185/128 192/186/128 190/187/128
f 193/188/129 195/189/129 196/190/129 194/191/129
f 193/192/130 194/191/130 189/193/130 190/194/130
f 196/190/131 195/189/131 192/186/131 191/195/131
f 194/191/132 196/190/132 191/195/132 189/193/132
f 190/187/133 192/186/133 195/189/133 193/188/133
f 197/184/133 199/185/133 200/186/133 198/187/133
f 201/188/132 203/189/132 204/190/132 202/191/132
f 201/192/130 202/191/130 197/193/130 198/194/130
f 204/190/131 203/189/131 200/186/131 199/195/131
f 202/191/128 204/190/128 199/195/128 197/193/128
f 198/187/129 200/186/129 203/189/129 201/188/129
f 205/184/128 207/185/128 208/186/128 206/187/128
f 209/188/129 211/189/129 212/190/129 210/191/129
f 209/192/130 210/191/130 205/193/130 206/194/130
f 212/190/131 211/189/131 208/186/131 207/195/131
f 210/191/132 212/190/132 207/195/132 205/193/132
f 206/187/133 208/186/133 211/189/133 209/188/133
f 213/184/133 215/185/133 216/186/133 214/187/133
f 217/188/132 219/189/132 220/190/132 218/191/132
f 217/192/130 218/191/130 213/193/130 214/194/130
f 220/190/131 219/189/131 216/186/131 215/195/131
f 218/191/128 220/190/128 215/195/128 213/193/128
f 214/187/129 216/186/129 219/189/129 217/188/129
